<!-- Generator: Adobe Illustrator 19.1.0, SVG Export Plug-In  -->
<svg version="1.1"
	 xmlns="http://www.w3.org/2000/svg" xmlns:xlink="http://www.w3.org/1999/xlink" xmlns:a="http://ns.adobe.com/AdobeSVGViewerExtensions/3.0/"
	 x="0px" y="0px" width="247.2px" height="256.3px" viewBox="0 0 247.2 256.3" style="enable-background:new 0 0 247.2 256.3;"
	 xml:space="preserve">
<style type="text/css">
	.st0{fill:#231F20;}
	.st1{fill:#DADADA;}
	.st2{fill:#242021;}
	.st3{fill:#D9D9D9;}
	.st4{fill:#FEFEFE;}
	.st5{fill:#D8D8D8;}
	.st6{fill:#FBFBFB;}
</style>
<defs>
</defs>
<g>
	<path class="st0" d="M127,198.9c-0.1-6.5,0.4-12.9,2.1-19.2c1.6-5.8,5-10.3,10.2-13.1c5.4-3,11.4,0.1,12.8,6.2
		c0.1,0.6-0.1,1.5,1.1,1c3.3-1.4,6.5,1.3,6.7,5.1c0.2,4.8,0.1,9.6,0.3,14.4c0.2,4.4,0.2,8.8,1.5,13c0.7,2.4,1.2,2.5,3.1,1
		c2.7-2.1,4.3-5.1,5.8-8.1c0.9-1.8,1.7-3.7,2.5-5.6c0.3-0.5,0.2-1,0.1-1.6c-1.3-8.5-0.4-17,0.6-25.4c0.1-1,0.6-1.9,1.2-2.8
		c1.2-1.7,2.8-1.6,3.8,0.2c0.9,1.7,0.8,3.6,1,5.4c0.9,7.4,1.4,14.8,3.1,22.1c0.3,1.1,0.6,2.2,0.9,3.3c0.9,2.6,2.1,3.2,4.8,2.6
		c2.3-0.5,4.3-1.6,6.1-3c3.4-2.5,6.4-5.4,8.6-9c1.5-2.2,0.6-4.2-0.3-6.5c-3.5-8.3-5.9-16.8-7-25.8c-0.7-6-1.2-12-1.4-18
		c0-8.1,0.2-16.2,1.8-24.2c1.5-7.6,3.9-14.8,9.4-20.6c1.6-1.7,3.5-2.7,5.9-2.6c4.4,0,6.6,2.8,8.1,6.3c2.4,5.3,2.7,11,2.9,16.7
		c0.2,4.9,0,9.8,0,14.7c-0.1,3.3-0.4,6.7-0.7,10c-1.2,12.4-3.1,24.7-9.2,35.8c-0.5,0.8-0.6,1.7-0.2,2.6c0.4,1.1,0.5,2.2,0.8,3.3
		c1.3,3.6,3.4,6.6,6.8,8.4c1,0.5,1.8,0.5,2.8-0.1c8.6-4.8,14.3-12.2,18.2-21.1c0.4-0.9,0.8-1.8,1.7-2.2c1.1-0.6,2.2-0.5,3.2,0.3
		c1,0.8,1.4,2,1,3.2c-0.3,0.9-0.6,1.8-1,2.7c-0.3,2.6-1.8,4.7-2.9,6.9c-3.5,6.7-8,12.7-14.4,16.9c-6.2,4.2-13,3.5-18.4-1.8
		c-1.7-1.6-1.7-1.6-3.1,0.3c-3.9,5.2-8,10.2-13.4,13.9c-2.7,1.9-5.5,3.4-9,3.6c-3.2,0.1-5.7-1-7.7-3.5c-1.3-1.6-1.4-1.6-2.3,0.4
		c-1.3,2.6-2.6,5.1-4.3,7.5c-2,2.6-4.7,4.1-7.7,4.9c-2.1,0.6-3.9,0-5.4-1.5c-1.8-1.8-3.1-4-4.1-6.3c-0.4-0.9-0.7-1.9-1.1-2.7
		c-0.5-0.1-0.7,0.2-0.8,0.4c-1.8,2.9-4.3,5.1-6.6,7.6c-2.5,2.7-5.3,3.3-8.8,2.6c-3.7-0.8-5.9-3.2-7.2-6.6c-1.2-3.2-1.5-6.5-1.6-9.9
		C127.2,200.3,127.3,199.6,127,198.9z"/>
	<path class="st0" d="M23.7,160c-0.3-14.2,3.3-27.7,7-41.2C35.1,103.5,40,88.2,46,73.4c0.1-2,1.2-3.7,1.8-5.6
		c0.5-1.4,0.4-1.5-1.1-1.3c-6.9,0.9-13.5,2.8-19.9,5.1c-6.4,2.3-12.7,4.9-19.2,7.2c-1.8,0.6-3.6,1.4-5.5,0.4c-2.1-0.8-2.6-1.9-1.5-4
		c1.1-2.2,3-3.7,4.9-5.1c5.9-4.4,12.4-7.7,18.9-11.1c11.3-5.8,23.7-8.7,35.8-12.3c2.4-0.7,4.8-1.9,7.5-1.5c0.2,0,0.4,0,0.5,0
		c5.8,0.3,8,3.3,6.7,8.9c-0.1,0.3-0.1,0.7-0.2,1.1c0,1.9-0.8,3.5-1.6,5.1c-1.5,3.1-3.1,6.2-4.8,9.3c-5.2,9.2-8.5,19.2-11.4,29.3
		c-3.8,13.3-6.3,26.9-8.7,40.4c-0.5,2.7-0.9,5.3-1.4,8c-0.1,0.7-0.4,1.7,1,1.4c4-1.8,7.9-3.6,11.9-5.4c6-2.7,12.5-3.5,18.9-4.7
		c5.6-1,11.2-2,16.8-3c2.6-0.5,4.3-2.2,6-4.4c1.4,3.7,2.5,7.2,1.3,10.9c-0.2,2.1-1.6,3.4-3.1,4.7c-3.7,3-8,4.5-12.6,5.5
		c-9.3,2-18.6,4-27.9,6c-3.5,0.8-6.9,2.5-10.3,3.7c-4.7,1.7-9.3,3.5-14,5.2c-1.7,0.6-3.4,1.1-5.2,1.5c-2.9,0.6-4.9-0.7-5.6-3.6
		C23.8,163.4,24,161.7,23.7,160z"/>
	<path class="st0" d="M70.8,177c-2.4,0.1-3.3-1.3-2.2-3.5c0.9-1.6,2.2-2.8,3.7-3.9c9.3-6.7,19.3-11.7,30.2-15.2
		c5.9-1.9,11.9-3.4,17.7-5.3c2.2-0.7,4.7-0.4,6.9,0.5c1.8,0.8,2.8,2.6,2.5,4.9c-0.1,1-0.4,2-0.6,3c-0.1,2.4-1.1,4.4-2.3,6.4
		c-8.1,13.7-12.3,28.8-15.5,44.2c-1.6,7.7-2.9,15.5-4.3,23.3c-0.3,1.8-0.3,1.8,0.6,2.2c3.6-1.6,7.1-3.4,10.8-4.9
		c5.7-2.3,11.9-2.8,17.8-4.1c0.6-0.1,1.3-0.3,1.9-0.5c1.7-1.1,3.6-0.9,5.5-1c3.1-0.2,5.9-1,7.7-4.1c1.2,3.1,2.1,5.9,1.1,9
		c-0.4,2.4-2.2,3.8-4,5c-3.6,2.4-7.8,3.3-12,4.2c-6.4,1.3-12.8,2.7-19.1,4.1c-3.5,0.8-6.9,2.5-10.3,3.8c-4,1.5-8,3.1-12.1,4.5
		c-0.9,0.3-1.7,0.5-2.6,0.6c-2.3,0.2-3.8-1-4.2-3.3c-0.2-1.4-0.1-2.7-0.3-4.1c-0.2-12.3,3-24.1,6.3-35.8
		c3.2-11.4,6.7-22.6,11.2-33.6c0.1-0.2,0.1-0.5,0.2-0.7c-0.2-1.7,1-2.9,1.4-4.4c0.1-0.6,0.7-1.1,0.3-1.7c-0.4-0.5-1.1-0.2-1.7-0.1
		c-6.4,1-12.5,2.9-18.4,5.3c-4,1.6-8,3.2-12.1,4.6C73.6,176.9,72.3,177.7,70.8,177z"/>
	<path class="st0" d="M144.7,57.9c0.9,14.2,2.8,28.1,8.3,41.4c0.9,2.1,1.4,2.2,3,0.5c2.8-2.9,4.6-6.4,6.4-9.9
		c2.7-5.3,4.9-10.9,6.7-16.6c0.6-2,2.3-3.1,4-2.6c1.7,0.5,2.4,2.1,1.9,4.2c-0.2,0.9-0.4,1.9-0.5,2.8c-0.3,4.7-2.1,8.9-3.6,13.3
		c-1.5,4.1-3.3,8.1-5.5,11.9c-1.8,3.1-4,5.8-6.7,8.1c-2.5,2.2-5.8,2.4-8.7,0.8c-5.3-2.9-8-7.8-10-13.2c-2.3-6.4-3.3-13.2-4.5-19.9
		c-1.1-6.4-1.8-12.9-2.5-19.4c-0.1-1-0.4-1.1-1.3-0.7c-2.8,1.4-5.4,3.1-8,4.9c-0.7,0.5-1.3,1-2.1,1.4c-1.3,0.5-2.5,0.5-3.3-0.8
		c-1.3-2.4-0.9-4.6,0.6-6.8c1.5-2.1,3.2-4.1,5.2-5.7c5.2-4.2,7.2-9.9,7.5-16.3c0.3-6.4-0.1-12.8-0.2-19.2c-0.1-4,0.2-7.9,1.7-11.7
		c0.7-1.8,1.7-3.3,3.6-4c2.2-0.8,3.5-0.2,4,2.1c0.9,4.1,0.9,8.3,1.1,12.5c0.4,7.7,0.9,15.4,1.7,23.1c0.1,1.2,0.4,1.5,1.6,1
		c5.9-2.2,12.1-3.5,18.3-4.7c2.3-0.4,3.6,0.2,4.2,1.7c0.6,1.6,0,2.8-2,4.1c-1.9,1.8-4.3,2.8-6.5,4c-4.1,2.2-8.1,4.4-12.1,6.6
		c-1.7,0.9-2.3,2.1-2.1,4C144.8,55.8,145.4,56.9,144.7,57.9z"/>
	<path class="st0" d="M100.7,109.7c0.2,0.4,0.4,0.9,0.7,1.3c2.5,3.9,5.8,4.2,9.1,0.9c3.1-3.1,5.9-6.6,8.3-10.4
		c1.7-2.7,3.2-5.6,3.9-8.8c0.4-1.6,1.6-2.2,3.2-1.6c1.9,0.8,2.9,2.6,2.4,4.7c-0.2,0.8-0.4,1.5-0.6,2.3c-0.2,1.6-0.9,3.1-1.6,4.5
		c-2.2,4.2-4.6,8.4-7.5,12.3c-1.8,2.4-4.1,4.4-6.4,6.3c-3.8,3-9.9,2.9-14.5,0c-4-2.5-6.6-6-8.3-10.3c-0.6-1.5-1.1-3-2.2-4.3
		c-0.5-0.6-0.8-1.4-0.7-2.2c0.2-2.9-0.8-5.7-0.7-8.5c0.1-7.5,0.1-15.1,2.1-22.5c1.1-4.3,2.8-8.3,5.4-11.9c2.1-2.9,4.9-4.6,8.4-5.4
		c3.4-0.8,6.1,0.3,8.2,3.1c2.9,4,3.7,8.5,3.6,13.2c0,0.7-0.1,1.4-0.1,2.2c-0.5,7.2-2.4,14-5.8,20.4c-1.7,3.3-3.8,6.3-6.9,8.4
		c-1.2,0.8-1.5,1.8-0.8,3.1C100.2,107.5,100.6,108.6,100.7,109.7z"/>
	<path class="st1" d="M143.7,223.2c-1.8,0.6-3.6,0.9-5.5,1c-0.4-0.5-1.1-0.6-1.6-0.7c-4-0.5-6.2-3.1-7.4-6.6
		c-1.1-3.2-1.6-6.4-1.8-9.8c-0.2-2.7-0.5-5.5-0.3-8.2c0.2,2.1,0.5,4.2,0.7,6.2c0.2,1.9,0.7,3.8,1.4,5.6c1.7,4.6,4.7,6.6,9.6,6.6
		c2,0,3.7-0.5,5.1-2.2c1.3-1.6,2.9-3.1,4.3-4.6c1.4-1.5,2.6-3.3,3.9-5.3c0.4,1,0.6,1.6,0.9,2.3c0.9,2.6,2.2,4.9,3.9,7.1
		c2.1,2.6,4.1,3.2,7.3,2c3.4-1.3,5.9-3.6,7.7-6.7c1.4-2.5,2.7-5,4.1-7.5c0.2,0.1,0.3,0.1,0.4,0.2c3.6,6.4,9,6.3,14.1,3.7
		c4.8-2.5,8.7-6.1,12.2-10.2c1.9-2.2,3.7-4.5,5.3-6.8c0.8-1.2,1.2-1,2,0c1.5,1.8,3.2,3.2,5.4,4.1c4.6,2,8.9,1.3,13-1.3
		c5.4-3.5,9.3-8.4,12.7-13.7c2-3.1,3.5-6.5,5.1-9.9c1.7,2.2,0.8,4.3-0.1,6.5c-3.3,7.8-7.5,14.8-13.8,20.5c-3.2,2.9-6.7,5.3-11.4,5.4
		c-4.3,0.1-7.6-1.7-10.5-4.7c-1.6-1.7-1.6-1.7-3,0.2c-4.4,5.9-9.1,11.5-15.5,15.5c-2.9,1.7-5.9,2.6-9.2,2.3c-2.5-0.3-4-2.1-5.5-3.8
		c-0.4-0.4-0.7-1-1-1.5c-0.8,0.3-0.9,1.1-1.2,1.7c-1.9,3.7-3.5,7.5-6.8,10.2c-2.1,1.7-4.5,3-7.3,2.8c-2.2-0.1-3.5-1.8-4.6-3.4
		c-1.5-2.2-2.9-4.5-3.6-7.2c-0.3-1.1-0.8-1-1.3-0.2c-2.1,3.6-5.1,6.5-8,9.4C142.5,222.9,142.7,223.1,143.7,223.2z"/>
	<path class="st1" d="M23.7,160c0.3,1.7,0.6,3.4,1,5.1c0.7,2.7,2.1,3.6,5,3c3.1-0.6,6-1.8,8.9-2.9c6.6-2.5,13-5.2,19.7-7.4
		c4.2-1.4,8.8-1.9,13.2-2.8c6.4-1.4,12.8-2.4,19.1-4.3c3.4-1,6.6-2.5,9.3-4.9c1.2-1.1,2.1-2.5,2.9-3.9c1.3,3.5-0.2,8.2-3.1,10.5
		c-4.3,3.5-9.4,5-14.7,6.1c-8.1,1.7-16.2,3.4-24.3,5.2c-5.6,1.2-10.8,3.9-16.2,5.7c-5,1.7-9.7,4-14.9,5.1c-2.5,0.5-4.2-0.4-4.9-2.9
		C23.8,167.9,23.5,164,23.7,160z"/>
	<path class="st1" d="M87.8,242.8c0.3,1.6,0.6,3.2,1,4.7c0.4,1.7,1.5,2.4,3.2,2.2c1.7-0.1,3.4-0.7,5-1.4c6.4-2.4,12.7-5.1,19.2-7.2
		c4.8-1.5,9.8-2.2,14.7-3.3c4.1-0.9,8.4-1.5,12.4-2.9c3.8-1.3,7.3-3.1,9.2-6.9c0.1,0.9,0.3,1.9,0.4,2.8c0.4,3.9-1.8,6.4-4.8,8.3
		c-4,2.6-8.6,3.4-13.2,4.3c-5.3,1.2-10.7,2.3-16.1,3.4c-5.2,1.1-9.9,3.5-14.8,5.2c-3.2,1.1-6.4,2.4-9.6,3.5c-4.1,1.3-5.6,0.3-6.2-4
		C87.8,248.8,87.6,245.8,87.8,242.8z"/>
	<path class="st1" d="M118.4,64c1.7,1.3,3.2,0.6,4.6-0.5c2.7-2.1,5.6-3.7,8.5-5.3c0.5-0.3,1-0.5,1.7-0.9c0.4,3.3,0.6,6.4,1,9.6
		c1.5,10.5,2.9,21,6.2,31.1c1.7,5.4,4.5,10.2,9.6,13.2c2.9,1.7,5.5,1.6,8.2-0.4c3.7-2.8,6.1-6.7,8.2-10.7c3.5-6.8,6-14.1,7.8-21.5
		c0.1-0.3,0.2-0.6,0.3-0.8c0.9,1.7,0.7,3.4,0.2,5.2c-1.8,7.6-4.2,15.1-7.6,22.2c-2.2,4.6-4.9,8.7-8.8,12.1c-2.2,1.9-5.9,2.2-8.4,0.6
		c-5.8-3.6-8.6-9.2-10.3-15.4c-2.4-8.8-3.9-17.8-5.1-26.8c-0.4-3.3-0.9-6.6-1-9.9c0-1.4-0.6-1.6-1.8-1c-3,1.6-5.9,3.2-8.5,5.3
		c-1.3,1-2.6,2.1-4.3,0.9c-1.2-0.9-1.6-3-0.9-5C118.1,65.2,118.4,64.6,118.4,64z"/>
	<path class="st1" d="M2.1,79.2c3.6,0.2,6.8-1.3,10-2.5c8.9-3.4,17.7-7.1,27-9.3c3.2-0.7,6.4-1.3,10.1-1.6c-1.1,2.7-2.2,5.2-3.2,7.7
		c-0.2-1-0.9-0.8-1.5-0.7c-7.6,1.3-14.9,3.6-22.1,6.5c-4.9,1.9-9.8,3.8-14.7,5.6c-1.6,0.6-3.3,0.9-5.1,0.8c-2.2-0.1-3-1.3-2.2-3.3
		C0.8,81.2,1.5,80.2,2.1,79.2z"/>
	<path class="st1" d="M85.7,95.9c0.4,2.2,0.6,4.4,1.3,6.5c0.2,0.5,0,0.9-0.1,1.4c-0.2,0.8-0.2,1.7,0.3,2.2c2.1,1.7,2.2,4.4,3.4,6.6
		c2.9,5.5,7,9.5,13.6,10.2c3.3,0.4,6.2-0.5,8.9-2.8c6.6-5.7,10.5-13.3,14.2-20.9c0.2-0.3,0.3-0.6,0.5-0.9c1.5,3.5,0,6.6-1.5,9.7
		c-3.3,6.6-7,12.8-12.4,18.1c-4.4,4.3-10.9,4.2-15.6,1.5c-4.8-2.7-7.3-7.2-9.1-12.2c-0.3-0.8-0.6-1.5-1.3-2.1
		c-0.8-0.8-1.2-1.8-0.8-2.9c0.2-0.6,0.1-1.1-0.1-1.7C85.8,104.3,85.4,100.1,85.7,95.9z"/>
	<path class="st1" d="M70.8,177c5.6-1.1,10.7-3.7,16-5.7c6.1-2.3,12.3-4.3,18.8-5.3c0.8-0.1,1.6-0.4,2.6-0.1c-1,2.3-1.9,4.5-2.9,6.8
		c-4.1,0.1-8,1.4-11.8,2.7c-6,2-11.9,4.4-17.8,6.7c-1.5,0.6-3.1,1-4.6,1.3c-1,0.2-2.2,0.1-2.7-0.8c-0.6-0.9-0.3-2,0.3-2.9
		C69.4,178.8,70.2,177.9,70.8,177z"/>
	<path class="st1" d="M47.9,148.7c-0.5,0.5-1.1,0.7-1.8,0.8c2.1-12.6,4.3-25,7.1-37.4C55.7,100.4,59.1,89,63.7,78
		c1.2-2.9,2.5-5.8,4.2-8.5c2.7-4.5,5-9.3,6.8-14.2c0.9,2.6,0.4,5.2-0.5,7.7c-1.6,4.3-3.7,8.5-6,12.4C65.4,80,63.5,85,61.5,90
		c-4.8,12.2-7.7,24.9-10.4,37.7c-1.3,6.4-2.4,12.9-3.6,19.3C47.4,147.6,47.3,148.3,47.9,148.7z"/>
	<path class="st1" d="M107.6,233.6c-0.4,0.4-0.8,0.7-1.6,0.6c1.4-7.5,2.6-15,4.1-22.5c2.5-13,5.6-25.8,11.1-37.9
		c0.7-1.6,1.5-3.3,2.4-4.8c2.1-3.7,4-7.5,5.5-11.5c1.5,4.8-0.7,9-2.9,12.9c-6,10.6-10.1,21.8-13,33.6c-2.3,9.5-4.1,19.1-5.8,28.7
		C107.4,233.1,107.3,233.4,107.6,233.6z"/>
	<path class="st1" d="M144.7,57.9c0-0.1-0.1-0.1-0.1-0.2c-0.7-5.8-0.7-5.9,4.5-8.7c5.4-3,10.9-5.9,16.4-8.8
		c-0.1,0.3-0.2,0.6,0.3,0.8c2.5,1.1,2.6,3.9,0,5.4c-1.5,0.8-3,1.7-4.5,2.5C155.8,51.9,150.2,54.9,144.7,57.9z"/>
	<path class="st1" d="M100.7,109.7c-0.1-0.3-0.3-0.5-0.4-0.8c-0.5-1.4-1.5-2.8-1.5-4.2c0-1.5,1.9-1.8,2.9-2.8
		c4.7-4.5,7.2-10.1,9-16.1c1.1-3.7,1.7-7.5,2.5-11.2c0.1,11.4-2.6,22-9.2,31.4C103.1,107.4,101.8,108.5,100.7,109.7z"/>
	<path class="st2" d="M171.6,142.5c-1.2-1.9-1.4-3.9-0.1-5.9c1.3-1.9,3-2.6,5.3-2.3c2.5,0.4,4.3,3.6,3.6,6.6
		c-0.1,0.6-0.4,1.2-0.6,1.8C178.3,145.7,173.6,145.5,171.6,142.5z"/>
	<path class="st3" d="M213.3,177.1c-0.5-1.3-1-2.7-1.6-4c-0.2-0.6-0.1-1,0.2-1.5c5-8.3,6.9-17.7,8.6-27.1c1-5.9,1.6-11.9,2-17.9
		c0-0.4,0.1-0.8,0.2-1.2c0.3,3.9-0.3,7.7-0.6,11.6c-0.3,3.8-0.6,7.6-1.2,11.4c-1.4,9-3.2,17.8-7,26.1
		C213.5,175.4,213.4,176.2,213.3,177.1z"/>
	<path class="st3" d="M194.7,135.2c0.4,5.2,0.7,10.4,1.4,15.5c1.5,10.9,4.1,21.5,9,31.4c0.2,0.4,0.6,0.8-0.1,1.2
		c-0.9,0.5-1,1.5-1.7,2.1c-1.9-5.5-3.9-11-5.1-16.7c-1.4-6.3-2.4-12.7-2.9-19.2C195,144.7,194.4,140,194.7,135.2z"/>
	<path class="st1" d="M171.6,142.5c1,0.8,2,1.4,3.2,1.8c2,0.5,3.6,0,5-1.5c0.4,1.6,1.1,3.1,0.5,4.9c-0.8,2.5-2.4,3.6-5.3,3.2
		c-2.7-0.4-4.6-2.7-4.3-5C170.8,144.6,171.3,143.5,171.6,142.5z"/>
	<path class="st4" d="M213.4,116.9c0.4,6.2,0.1,12.5-0.4,18.7c-0.5,7.6-1.3,15.2-2.6,22.7c-0.3,1.8-0.7,3.5-1.6,5.4
		c-1.7-6.8-2.9-13.4-3.1-20.1c-0.3-4.1-0.2-8.2,0.2-12.3c0.5-4.4,0.9-8.9,1.7-13.3c0.5-3,1.6-5.8,2.6-8.6c0.2-0.6,0.5-1.2,1.2-1.2
		c0.8,0,0.9,0.8,1.1,1.4C213.2,112.1,213,114.5,213.4,116.9z"/>
	<path class="st4" d="M146.8,182.1c-1.2,5.4-2.3,10.8-4,16c-0.9,2.6-2.2,4.9-4.3,7c-0.9-2.6-1.6-5-1.8-7.6c-0.6-6,0.3-11.7,3.9-16.7
		c1.4-1.9,3.2-2.3,5.4-1.3C147.2,180.1,147.1,181.1,146.8,182.1z"/>
	<path class="st1" d="M146.8,182.1c-0.1-0.8,0.2-2-1.1-2.2c-1.5-0.2-3.1-1.2-4.4,0.7c-3.1,4.4-4.6,9.2-4.6,14.5c0,0.8,0,1.7,0,2.5
		c-0.9-8.2-0.3-16,4.4-23.1c1.4-2.1,4.8-1.9,5.9,0.3c0.2,0.4,0.5,1,0.9,1.1c1.8,0.6,1.1,1.5,0.5,2.6
		C147.8,179.7,147.3,180.9,146.8,182.1z"/>
	<path class="st5" d="M213.4,116.9c-0.4-2-0.7-4.1-1.2-6.1c-0.2-0.8,0.1-2.2-0.9-2.2c-0.7,0-0.7,1.3-1,2.1
		c-2.1,5.3-2.8,10.8-3.5,16.3c-0.8,5.5-1,11-1.1,16.6c-0.6-4.8-0.3-9.7,0.1-14.5c0.6-6.2,1.2-12.4,2.5-18.5c0.6-3.1,1.8-6,3.1-9.4
		C213,106.7,213.6,111.8,213.4,116.9z"/>
	<path class="st5" d="M97.5,93.2c-0.1-8.1,0.9-16,4.6-23.3c0.8,2.1,0.9,4.2,0.4,6.4c-2.4,4.7-3.6,9.8-4.2,15
		C98.3,92,98.6,92.9,97.5,93.2z"/>
	<path class="st6" d="M97.5,93.2c0.4-2.3,0.6-4.6,1.1-6.8c0.6-3,1.3-6,2.7-8.7c0.3-0.6,0.4-1.3,1.2-1.4c-0.4,6.6-2.1,12.8-4.8,19.2
		C97.3,94.4,97.4,93.8,97.5,93.2z"/>
</g>
</svg>
